if (_typeface_js && _typeface_js.loadFace) _typeface_js.loadFace({"glyphs":{"S":{"x_min":18.75,"x_max":921,"ha":914,"o":"m 921 60 q 862 -153 921 -80 q 823 -186 851 -165 q 553 -264 719 -264 q 210 -209 415 -264 q 47 -55 81 -175 q 18 169 18 45 q 121 176 64 176 q 355 153 222 176 q 370 87 365 139 q 401 28 375 45 q 485 5 439 5 q 570 39 536 5 q 505 188 570 125 q 367 278 465 225 q 269 335 305 312 q 229 367 254 348 q 176 395 211 375 q 69 521 103 442 q 55 553 59 545 q 55 606 55 555 q 45 739 45 704 q 162 1024 45 952 q 367 1079 228 1066 q 603 1098 543 1098 q 851 995 784 1098 q 907 650 907 909 q 901 555 907 599 q 738 555 820 555 q 579 577 644 555 l 579 673 q 584 718 579 688 q 568 836 584 796 q 513 873 552 873 q 428 843 469 873 q 351 770 371 832 q 346 713 346 753 q 390 588 346 624 q 467 543 393 586 q 664 425 608 461 q 844 284 770 356 q 872 255 855 274 q 921 60 921 188 "},"/":{"x_min":14,"x_max":271,"ha":270,"o":"m 271 464 q 163 446 232 446 q 95 446 151 446 q 27 446 54 446 l 14 454 l 14 586 q 23 682 14 645 l 256 682 l 271 668 l 271 464 "},"K":{"x_min":34.5,"x_max":729,"ha":752,"o":"m 729 915 q 528 350 729 914 q 624 66 560 248 q 722 -215 694 -129 q 692 -243 722 -238 q 641 -250 649 -250 l 570 -250 q 508 -233 528 -250 q 404 37 475 -143 q 359 -95 384 1 q 306 -225 336 -183 l 79 -225 l 59 -200 q 59 262 59 47 q 34 966 59 643 l 45 973 l 316 973 l 330 944 q 330 731 330 873 q 330 518 330 589 q 330 455 330 483 q 508 926 369 547 q 589 966 523 966 q 635 963 604 966 q 681 960 666 960 q 712 941 696 951 q 729 915 729 930 "},"7":{"x_min":19,"x_max":1026.21875,"ha":1045,"o":"m 1026 812 l 548 -214 q 389 -266 484 -244 q 224 -301 306 -282 q 413 185 274 -107 q 636 650 488 340 q 397 598 534 634 q 160 530 278 564 q 70 687 111 604 q 19 855 19 796 q 23 882 19 871 q 197 925 82 898 l 955 1068 q 969 1071 970 1071 q 1008 1025 1004 1071 l 1026 812 "},"d":{"x_min":42,"x_max":804,"ha":827,"o":"m 804 550 q 748 131 804 427 q 685 -19 731 44 q 554 -111 632 -90 q 263 -146 422 -146 q 51 -130 163 -146 l 42 -111 q 42 302 42 6 q 42 718 42 566 q 42 964 42 851 l 75 985 q 203 985 149 985 q 621 907 461 985 q 684 871 663 886 q 804 550 804 781 m 446 322 q 406 669 446 554 q 338 745 388 719 q 313 755 330 748 q 276 768 289 768 q 249 741 252 768 q 239 516 239 636 q 239 336 239 456 q 239 156 239 216 q 293 140 260 140 q 378 161 330 140 q 439 227 426 183 q 446 322 446 251 "},",":{"x_min":-1.359375,"x_max":313.0625,"ha":313,"o":"m 313 44 q 247 -109 295 -26 q 163 -255 220 -159 q 122 -276 149 -276 q 85 -266 100 -276 q 42 -246 65 -252 q -1 -227 25 -241 q 61 -48 16 -152 q 133 125 83 3 q 161 149 142 149 q 238 105 182 149 q 313 44 276 75 "},"Y":{"x_min":1,"x_max":951,"ha":947,"o":"m 951 955 q 925 883 951 932 q 898 828 915 865 q 893 812 896 822 q 829 694 889 803 q 670 433 769 586 q 670 -224 670 134 l 648 -247 l 319 -247 l 317 -237 q 317 322 317 129 q 317 426 317 375 q 9 953 253 550 q 1 972 1 965 q 52 1010 1 990 l 281 1094 q 356 1005 323 1072 q 409 891 374 968 q 462 784 427 855 q 513 682 479 750 q 697 997 633 861 q 714 1037 702 1011 q 765 1060 727 1060 q 877 1032 815 1060 q 951 955 951 1000 "},"E":{"x_min":13.921875,"x_max":666.875,"ha":676,"o":"m 666 1048 l 666 817 q 595 796 637 796 q 552 802 577 796 q 446 812 504 812 q 366 812 419 812 q 285 812 312 812 q 270 763 270 792 q 276 717 270 748 q 281 671 281 686 q 385 646 321 646 q 386 649 382 649 l 404 649 q 481 649 447 649 l 498 649 q 567 642 538 649 l 567 431 l 221 431 q 200 378 200 413 q 203 345 200 366 q 207 313 207 323 l 227 300 l 477 300 q 631 300 529 300 q 649 215 648 273 q 649 126 649 245 q 612 92 649 107 q 518 92 567 92 q 266 92 434 92 q 13 92 98 92 l 18 115 q 18 579 18 286 q 18 1044 18 916 l 45 1061 q 151 1061 95 1061 q 391 1061 228 1061 q 633 1061 549 1061 l 661 1061 l 666 1048 "},"y":{"x_min":1,"x_max":951,"ha":947,"o":"m 951 955 q 925 883 951 932 q 898 828 915 865 q 893 812 896 822 q 829 694 889 803 q 670 433 769 586 q 670 -224 670 134 l 648 -247 l 319 -247 l 317 -237 q 317 322 317 129 q 317 426 317 375 q 9 953 253 550 q 1 972 1 965 q 52 1010 1 990 l 281 1094 q 356 1005 323 1072 q 409 891 374 968 q 462 784 427 855 q 513 682 479 750 q 697 997 633 861 q 714 1037 702 1011 q 765 1060 727 1060 q 877 1032 815 1060 q 951 955 951 1000 "},"\"":{"x_min":0,"x_max":619.3125,"ha":623,"o":"m 619 933 q 553 779 601 862 q 469 633 526 729 q 428 613 455 613 q 392 622 406 613 q 348 643 371 636 q 304 661 332 647 q 367 840 322 736 q 439 1014 389 892 q 468 1038 449 1038 q 544 994 488 1038 q 619 933 582 964 m 314 919 q 249 765 296 849 q 164 619 221 715 q 123 599 151 599 q 87 608 102 599 q 43 629 66 622 q 0 647 27 633 q 62 826 17 722 q 134 1000 84 878 q 163 1024 144 1024 q 239 980 183 1024 q 314 919 277 950 "},"g":{"x_min":0,"x_max":718.53125,"ha":751,"o":"m 718 682 q 715 618 718 652 q 440 598 661 598 q 419 671 427 606 q 381 734 411 727 q 359 734 379 734 q 221 713 254 734 q 178 559 178 685 q 178 534 178 551 q 179 511 179 519 q 174 424 179 481 q 170 338 170 368 q 253 157 170 197 q 337 142 285 142 q 435 168 404 142 q 475 238 475 201 l 475 243 l 461 258 q 345 258 462 258 q 264 283 288 258 l 264 520 l 277 536 q 652 518 408 518 l 672 495 q 672 381 672 477 q 672 268 672 312 q 613 48 672 117 q 342 -51 518 -51 q 99 23 197 -51 q 14 160 36 71 q 0 323 0 218 q 0 372 0 340 q 0 421 0 404 q 16 794 0 704 q 66 915 27 860 q 157 989 110 978 q 284 1010 174 993 q 438 1027 399 1027 q 593 999 527 1027 q 613 989 612 990 q 666 935 639 964 q 678 908 669 932 q 718 682 718 817 "},"e":{"x_min":13.921875,"x_max":666.875,"ha":676,"o":"m 666 1048 l 666 817 q 595 796 637 796 q 552 802 577 796 q 446 812 504 812 q 366 812 419 812 q 285 812 312 812 q 270 763 270 792 q 276 717 270 748 q 281 671 281 686 q 385 646 321 646 q 386 649 382 649 l 404 649 q 481 649 447 649 l 498 649 q 567 642 538 649 l 567 431 l 221 431 q 200 378 200 413 q 203 345 200 366 q 207 313 207 323 l 227 300 l 477 300 q 631 300 529 300 q 649 215 648 273 q 649 126 649 245 q 612 92 649 107 q 518 92 567 92 q 266 92 434 92 q 13 92 98 92 l 18 115 q 18 579 18 286 q 18 1044 18 916 l 45 1061 q 151 1061 95 1061 q 391 1061 228 1061 q 633 1061 549 1061 l 661 1061 l 666 1048 "},"J":{"x_min":12,"x_max":690,"ha":708,"o":"m 690 648 q 653 134 690 438 l 648 91 q 638 70 648 88 q 554 -9 609 17 q 419 -44 506 -34 q 321 -55 377 -50 q 276 -60 278 -60 q 83 -21 123 -60 q 12 236 12 49 q 12 364 12 259 q 13 364 12 364 l 17 365 l 39 365 q 139 365 58 365 q 255 343 217 365 l 255 334 q 252 277 255 315 q 250 223 250 240 q 280 126 250 158 q 314 121 296 121 q 409 180 385 121 q 425 305 425 218 q 425 411 425 341 q 425 514 425 481 q 425 923 425 641 q 480 944 434 944 q 552 948 539 944 q 570 948 560 948 q 595 948 578 948 q 620 948 612 948 q 672 923 663 948 q 676 889 672 921 q 690 648 690 778 "},"|":{"x_min":14,"x_max":271,"ha":270,"o":"m 271 464 q 163 446 232 446 q 95 446 151 446 q 27 446 54 446 l 14 454 l 14 586 q 23 682 14 645 l 256 682 l 271 668 l 271 464 "},"‐":{"x_min":9.84375,"x_max":434,"ha":449,"o":"m 434 501 q 427 435 434 480 q 420 367 420 391 l 387 354 l 47 354 q 18 408 18 369 q 20 438 18 419 q 23 467 23 458 q 9 510 23 494 q 81 547 27 547 q 320 547 175 547 q 428 540 384 547 q 434 501 434 523 "},"^":{"x_min":14,"x_max":271,"ha":270,"o":"m 271 464 q 163 446 232 446 q 95 446 151 446 q 27 446 54 446 l 14 454 l 14 586 q 23 682 14 645 l 256 682 l 271 668 l 271 464 "},"q":{"x_min":12,"x_max":1059,"ha":1067,"o":"m 1059 -28 q 1059 -312 1059 -121 l 1034 -328 q 845 -340 920 -340 q 478 -235 606 -340 q 313 -222 435 -222 q 146 -201 201 -222 q 35 -110 74 -175 q 29 -91 29 -92 q 12 55 28 -89 q 12 165 12 62 q 12 500 12 266 q 12 843 12 614 q 106 959 12 919 q 265 1008 123 969 q 540 1057 439 1057 q 767 971 687 1057 q 800 927 790 946 q 815 875 807 915 q 839 625 839 768 q 839 375 839 554 q 839 131 839 250 q 832 117 839 126 q 825 103 825 107 q 812 -38 825 -13 q 870 -51 839 -51 q 951 -35 901 -51 q 1036 -9 1034 -9 q 1059 -28 1049 -9 m 495 282 q 474 512 495 383 q 458 604 470 543 q 366 657 443 657 q 308 644 336 657 q 286 371 286 541 q 286 265 286 336 q 286 157 286 193 q 286 103 286 125 q 331 67 299 78 q 392 56 338 65 q 392 63 392 60 q 378 116 392 82 q 364 168 364 150 q 411 242 364 204 q 495 282 455 276 "},"b":{"x_min":46,"x_max":691,"ha":718,"o":"m 691 782 q 661 596 691 629 q 608 561 654 589 q 563 521 573 540 q 652 429 634 487 q 667 274 667 379 q 647 85 667 188 q 641 52 646 72 q 631 36 639 47 q 536 -20 600 -5 q 421 -34 519 -24 q 383 -37 381 -38 l 58 -37 l 46 -23 q 46 306 46 125 q 46 1084 46 497 q 69 1107 48 1091 q 206 1100 127 1100 l 396 1102 l 395 1102 q 581 1076 532 1098 q 614 1049 593 1070 q 691 799 691 971 l 691 782 m 420 766 q 407 854 420 826 q 371 905 396 878 q 319 940 341 936 q 285 944 308 941 l 273 946 q 235 930 247 946 l 235 642 q 292 617 244 617 q 326 617 322 617 q 373 636 349 617 q 408 678 396 655 q 420 766 420 702 m 479 267 q 468 350 479 319 q 354 419 443 419 q 339 419 347 419 q 327 332 327 382 q 327 265 327 310 q 327 197 327 220 q 330 163 327 179 q 375 148 347 148 q 452 167 405 148 q 479 267 479 210 "},"D":{"x_min":42,"x_max":804,"ha":827,"o":"m 804 550 q 748 131 804 427 q 685 -19 731 44 q 554 -111 632 -90 q 263 -146 422 -146 q 51 -130 163 -146 l 42 -111 q 42 302 42 6 q 42 718 42 566 q 42 964 42 851 l 75 985 q 203 985 149 985 q 621 907 461 985 q 684 871 663 886 q 804 550 804 781 m 446 322 q 406 669 446 554 q 338 745 388 719 q 313 755 330 748 q 276 768 289 768 q 249 741 252 768 q 239 516 239 636 q 239 336 239 456 q 239 156 239 216 q 293 140 260 140 q 378 161 330 140 q 439 227 426 183 q 446 322 446 251 "},"z":{"x_min":22,"x_max":1240.046875,"ha":1241,"o":"m 1240 957 l 1207 738 q 901 440 1112 641 q 596 152 699 247 q 1074 152 754 152 q 1045 -103 1074 97 l 1029 -151 q 683 -151 977 -151 l 26 -151 l 22 -171 l 22 43 l 707 686 l 141 686 q 139 740 139 710 q 149 883 139 787 q 158 1022 158 973 q 231 1042 185 1042 q 269 1042 243 1042 q 307 1042 295 1042 q 341 1042 318 1042 q 374 1042 363 1042 q 488 1042 435 1042 l 1223 972 l 1240 957 "},"w":{"x_min":18,"x_max":1217.5625,"ha":1230,"o":"m 1217 1013 q 1204 955 1217 996 q 1191 890 1191 915 q 1174 793 1191 896 q 1068 -156 1121 446 q 873 -194 979 -194 q 838 -194 855 -194 q 679 430 760 148 l 679 433 q 668 450 679 439 q 636 305 653 401 q 606 160 624 233 q 593 44 602 144 q 568 -200 582 -46 q 491 -239 547 -233 q 400 -252 459 -242 q 307 -272 323 -272 q 251 -237 261 -272 q 243 -182 249 -219 l 223 -28 q 171 328 185 233 q 106 682 140 528 q 84 776 91 748 q 53 866 71 829 q 18 996 18 944 q 24 1044 18 1021 q 338 1101 96 1066 l 367 1037 q 405 754 368 1034 q 457 478 427 586 q 532 1008 532 739 q 642 1046 563 1046 q 722 1046 651 1046 q 773 971 759 1022 q 782 876 782 940 q 792 783 782 812 q 829 614 802 754 q 877 450 850 511 q 912 734 912 553 q 929 1021 912 946 l 950 1049 l 1206 1049 q 1217 1013 1217 1032 "},"$":{"x_min":-1,"x_max":722,"ha":740,"o":"m 722 638 q 624 629 679 629 q 458 648 546 629 q 438 719 448 683 q 387 759 420 759 l 345 759 q 305 759 313 754 l 311 759 q 281 733 289 757 q 359 604 281 657 q 491 520 418 563 q 595 465 527 502 q 650 410 620 450 q 689 341 680 371 q 713 164 713 273 q 641 -20 713 39 q 452 -90 585 -65 l 442 -169 l 269 -169 q 260 -134 260 -163 q 245 -102 260 -106 q 224 -102 234 -102 q 125 -84 170 -102 q 47 -3 61 -56 q 23 125 39 28 q 11 255 11 196 q 16 328 11 293 l 17 328 l 23 328 l 45 328 l 152 328 q 274 314 231 328 l 274 119 q 320 85 287 85 q 367 95 336 85 q 414 105 397 105 q 463 201 463 128 q 458 254 463 237 q 354 351 446 307 q 224 416 297 377 q 96 530 171 461 q 0 689 8 612 q -1 739 -1 701 q 20 855 -1 808 q 99 946 45 911 q 136 953 110 953 q 181 948 151 953 q 226 944 211 944 q 284 998 284 944 q 284 1043 284 1021 q 297 1084 284 1074 l 303 1084 l 315 1084 l 391 1084 q 473 1070 443 1084 l 473 969 q 567 943 490 959 q 658 895 630 929 q 722 638 722 819 "},"\\":{"x_min":14,"x_max":271,"ha":270,"o":"m 271 464 q 163 446 232 446 q 95 446 151 446 q 27 446 54 446 l 14 454 l 14 586 q 23 682 14 645 l 256 682 l 271 668 l 271 464 "},"~":{"x_min":14,"x_max":271,"ha":270,"o":"m 271 464 q 163 446 232 446 q 95 446 151 446 q 27 446 54 446 l 14 454 l 14 586 q 23 682 14 645 l 256 682 l 271 668 l 271 464 "},"-":{"x_min":9.84375,"x_max":434,"ha":449,"o":"m 434 501 q 427 435 434 480 q 420 367 420 391 l 387 354 l 47 354 q 18 408 18 369 q 20 438 18 419 q 23 467 23 458 q 9 510 23 494 q 81 547 27 547 q 320 547 175 547 q 428 540 384 547 q 434 501 434 523 "},"Q":{"x_min":12,"x_max":1059,"ha":1067,"o":"m 1059 -28 q 1059 -312 1059 -121 l 1034 -328 q 845 -340 920 -340 q 478 -235 606 -340 q 313 -222 435 -222 q 146 -201 201 -222 q 35 -110 74 -175 q 29 -91 29 -92 q 12 55 28 -89 q 12 165 12 62 q 12 500 12 266 q 12 843 12 614 q 106 959 12 919 q 265 1008 123 969 q 540 1057 439 1057 q 767 971 687 1057 q 800 927 790 946 q 815 875 807 915 q 839 625 839 768 q 839 375 839 554 q 839 131 839 250 q 832 117 839 126 q 825 103 825 107 q 812 -38 825 -13 q 870 -51 839 -51 q 951 -35 901 -51 q 1036 -9 1034 -9 q 1059 -28 1049 -9 m 495 282 q 474 512 495 383 q 458 604 470 543 q 366 657 443 657 q 308 644 336 657 q 286 371 286 541 q 286 265 286 336 q 286 157 286 193 q 286 103 286 125 q 331 67 299 78 q 392 56 338 65 q 392 63 392 60 q 378 116 392 82 q 364 168 364 150 q 411 242 364 204 q 495 282 455 276 "},"M":{"x_min":-2.328125,"x_max":1290.578125,"ha":1340,"o":"m 1290 -254 l 1282 -268 l 1242 -268 q 1005 -249 1115 -268 q 989 -180 989 -223 q 970 -67 989 -141 q 970 151 970 41 q 938 368 970 282 q 877 152 903 277 q 839 -67 869 112 q 826 -141 836 -96 q 734 -190 813 -181 q 621 -190 678 -190 q 574 -198 577 -198 q 498 -148 510 -198 q 471 -31 490 -109 q 332 355 425 140 q 331 200 331 284 q 331 -3 331 132 q 331 -208 331 -139 q 311 -277 331 -269 q 260 -279 287 -279 q 171 -279 230 -279 q 82 -279 111 -279 q 7 -277 41 -279 q -2 -184 -2 -237 l -2 -167 q -2 -84 -2 -138 l -2 -63 q 0 -56 0 -60 q 14 -58 15 -58 q 14 28 14 -17 q 14 540 14 184 q 14 1051 14 870 l 43 1068 l 299 1068 q 344 988 326 1041 q 371 898 352 957 q 414 785 386 860 q 504 533 448 692 q 649 175 584 301 q 683 255 655 184 q 720 344 697 284 q 739 411 722 350 q 886 1023 828 719 q 935 1035 905 1035 q 995 1027 965 1035 q 1073 1012 1025 1019 q 1159 982 1126 1012 q 1290 -254 1159 366 "},"C":{"x_min":7,"x_max":829,"ha":839,"o":"m 829 745 q 829 603 829 696 l 802 583 l 792 583 q 727 578 769 583 q 664 573 684 573 q 584 594 615 573 l 584 601 q 587 645 582 616 q 592 688 592 674 q 490 762 592 762 q 361 745 429 762 q 298 655 309 732 q 289 532 289 587 q 289 494 289 517 q 289 453 289 462 q 289 291 289 416 q 317 61 289 114 q 437 9 346 9 q 526 20 475 9 q 584 148 570 60 q 584 291 584 219 q 658 297 621 297 q 790 276 729 297 q 774 34 790 195 q 698 -140 762 -75 q 668 -166 679 -159 q 526 -192 626 -192 q 470 -192 507 -192 q 415 -192 433 -192 q 390 -192 407 -192 q 367 -192 376 -192 l 294 -179 q 185 -165 254 -179 q 50 -84 98 -141 q 35 -65 36 -68 l 7 20 q 32 717 7 459 q 46 845 32 760 q 140 974 63 925 q 284 1023 190 1006 q 389 1040 322 1029 q 441 1049 439 1049 q 505 1049 464 1049 q 570 1049 551 1049 q 643 1049 594 1049 q 799 956 760 1049 q 829 745 829 888 "},"[":{"x_min":0,"x_max":384,"ha":380,"o":"m 384 906 q 372 764 384 818 q 280 701 314 764 q 280 439 280 577 q 280 244 280 339 q 286 173 280 219 q 305 102 293 127 q 359 48 323 64 l 359 -147 q 269 -147 270 -147 q 175 -130 213 -147 q 39 -45 85 -105 q 24 -24 26 -28 q 0 79 20 -10 q 37 795 0 429 q 45 875 37 823 q 56 901 46 882 q 185 1015 95 979 q 384 1054 235 1036 l 384 906 "},"L":{"x_min":13.75,"x_max":677.71875,"ha":697,"o":"m 677 80 l 662 62 l 638 62 q 31 105 505 62 l 26 120 q 26 581 26 386 q 13 1038 26 835 l 39 1058 l 286 1058 q 316 1019 316 1058 q 300 992 316 1003 q 283 678 300 702 q 261 366 283 500 q 266 339 266 356 q 264 318 266 332 q 262 297 262 304 q 277 260 262 272 q 378 259 322 259 q 497 259 417 259 q 616 259 577 259 q 677 259 651 259 l 677 80 "},"!":{"x_min":13.828125,"x_max":309,"ha":346,"o":"m 309 1002 l 309 555 q 309 103 309 280 q 187 85 265 85 q 112 85 173 85 q 45 85 71 85 l 29 93 l 29 794 q 13 1007 29 854 q 55 1022 24 1022 q 97 1032 86 1022 q 127 1032 110 1032 q 176 1032 143 1032 q 221 1032 208 1032 q 309 1002 279 1032 m 281 -227 l 267 -236 l 38 -236 l 22 -222 l 22 -20 q 135 0 62 0 q 202 0 147 0 q 267 0 241 0 l 281 -9 l 281 -227 "}," ":{"x_min":0,"x_max":0,"ha":647},"{":{"x_min":0,"x_max":384,"ha":380,"o":"m 384 906 q 372 764 384 818 q 280 701 314 764 q 280 439 280 577 q 280 244 280 339 q 286 173 280 219 q 305 102 293 127 q 359 48 323 64 l 359 -147 q 269 -147 270 -147 q 175 -130 213 -147 q 39 -45 85 -105 q 24 -24 26 -28 q 0 79 20 -10 q 37 795 0 429 q 45 875 37 823 q 56 901 46 882 q 185 1015 95 979 q 384 1054 235 1036 l 384 906 "},"X":{"x_min":24,"x_max":970,"ha":970,"o":"m 970 -59 q 844 -121 922 -88 q 715 -177 733 -169 l 692 -173 l 470 190 q 380 21 425 105 q 308 -156 331 -77 q 260 -169 286 -169 q 178 -151 233 -169 q 93 -133 123 -133 q 81 -88 81 -113 q 94 -27 81 -62 q 213 235 140 87 q 308 438 247 301 q 24 931 24 883 q 70 983 24 963 q 217 1034 181 1034 q 260 1028 241 1034 q 349 897 279 1022 q 443 733 429 750 q 576 1000 486 822 q 831 927 684 977 l 831 886 q 609 478 677 626 q 787 212 677 369 q 970 -48 878 82 l 970 -59 "},"P":{"x_min":20,"x_max":809,"ha":816,"o":"m 809 618 q 704 382 809 443 q 527 316 663 358 q 348 252 466 298 l 338 229 q 338 52 338 140 q 360 -121 338 -52 l 360 -127 q 363 -154 358 -137 q 367 -180 367 -171 q 356 -206 367 -195 q 273 -208 319 -208 q 159 -208 246 -208 q 43 -208 86 -208 l 20 -189 l 20 401 q 20 964 20 734 q 97 981 33 981 q 161 980 145 981 q 405 980 391 980 q 638 932 553 980 q 781 786 732 881 q 798 750 788 773 q 809 618 809 707 m 466 678 q 458 736 466 717 q 421 786 451 755 q 372 819 391 817 q 318 821 353 821 l 306 824 l 303 824 l 304 824 q 245 805 265 824 l 245 563 l 261 544 q 293 543 277 543 q 439 584 373 543 q 466 678 466 621 "},"%":{"x_min":14,"x_max":271,"ha":270,"o":"m 271 464 q 163 446 232 446 q 95 446 151 446 q 27 446 54 446 l 14 454 l 14 586 q 23 682 14 645 l 256 682 l 271 668 l 271 464 "},"#":{"x_min":14,"x_max":271,"ha":270,"o":"m 271 464 q 163 446 232 446 q 95 446 151 446 q 27 446 54 446 l 14 454 l 14 586 q 23 682 14 645 l 256 682 l 271 668 l 271 464 "},"_":{"x_min":14,"x_max":271,"ha":270,"o":"m 271 464 q 163 446 232 446 q 95 446 151 446 q 27 446 54 446 l 14 454 l 14 586 q 23 682 14 645 l 256 682 l 271 668 l 271 464 "},"+":{"x_min":14,"x_max":271,"ha":270,"o":"m 271 464 q 163 446 232 446 q 95 446 151 446 q 27 446 54 446 l 14 454 l 14 586 q 23 682 14 645 l 256 682 l 271 668 l 271 464 "},")":{"x_min":24,"x_max":537,"ha":559,"o":"m 537 221 q 506 -32 537 73 q 396 -202 473 -148 q 360 -223 373 -219 q 311 -231 343 -225 q 193 -257 253 -245 q 74 -273 124 -273 q 38 -273 56 -273 q 24 -190 24 -238 q 42 -64 24 -141 q 167 28 146 -35 q 174 64 169 30 q 195 336 195 173 q 195 608 195 472 q 204 662 204 621 q 204 715 204 697 q 199 743 204 719 q 124 843 177 814 q 87 853 106 853 q 46 859 74 853 q 44 893 44 876 q 57 995 44 927 q 70 1095 70 1062 l 80 1097 q 204 1090 167 1097 q 325 1058 275 1078 q 437 981 393 1031 q 456 959 453 965 q 468 922 460 954 q 520 597 520 794 l 520 343 q 537 221 537 214 "},"'":{"x_min":0,"x_max":314.421875,"ha":313,"o":"m 314 919 q 249 765 296 849 q 164 619 221 715 q 123 599 151 599 q 87 608 102 599 q 43 629 66 622 q 0 647 27 633 q 62 826 17 722 q 134 1000 84 878 q 163 1024 144 1024 q 239 980 183 1024 q 314 919 277 950 "},"}":{"x_min":24,"x_max":537,"ha":559,"o":"m 537 221 q 506 -32 537 73 q 396 -202 473 -148 q 360 -223 373 -219 q 311 -231 343 -225 q 193 -257 253 -245 q 74 -273 124 -273 q 38 -273 56 -273 q 24 -190 24 -238 q 42 -64 24 -141 q 167 28 146 -35 q 174 64 169 30 q 195 336 195 173 q 195 608 195 472 q 204 662 204 621 q 204 715 204 697 q 199 743 204 719 q 124 843 177 814 q 87 853 106 853 q 46 859 74 853 q 44 893 44 876 q 57 995 44 927 q 70 1095 70 1062 l 80 1097 q 204 1090 167 1097 q 325 1058 275 1078 q 437 981 393 1031 q 456 959 453 965 q 468 922 460 954 q 520 597 520 794 l 520 343 q 537 221 537 214 "},"a":{"x_min":4,"x_max":1109,"ha":1121,"o":"m 1109 -134 q 1109 -207 1109 -159 q 1066 -264 1109 -255 q 746 -231 962 -251 q 707 -152 717 -205 l 691 -63 q 682 -26 688 -51 q 662 65 672 19 q 635 153 652 118 l 349 153 l 340 143 l 265 -138 q 227 -165 258 -165 q 196 -158 216 -165 q 167 -149 175 -151 q 72 -137 119 -144 q 4 -80 20 -124 q 74 180 4 62 q 88 202 80 187 q 95 230 91 212 q 133 333 107 273 q 177 434 177 433 q 245 637 198 491 q 349 1061 319 876 q 394 1107 362 1080 l 682 1107 q 746 998 726 1068 q 766 873 746 995 q 922 373 804 637 q 1109 -134 971 262 m 586 371 q 509 626 532 541 q 413 371 442 458 l 586 371 "},"T":{"x_min":6.5625,"x_max":1172,"ha":1187,"o":"m 1172 837 l 1148 825 l 748 825 l 733 809 q 733 397 733 790 q 754 -10 733 155 q 684 -20 723 -20 q 619 -16 662 -20 q 554 -12 576 -12 q 516 -15 533 -12 q 474 -9 509 -9 q 431 8 447 -9 q 431 126 431 64 q 431 437 431 223 q 431 748 431 638 l 394 772 l 18 772 l 6 788 q 12 936 12 829 q 22 1082 12 1029 q 85 1094 50 1094 q 149 1087 108 1094 q 211 1076 197 1077 q 260 1075 210 1076 l 380 1075 q 653 1075 470 1075 q 925 1075 835 1075 q 1143 1075 1057 1075 l 1172 1059 l 1172 837 "},"=":{"x_min":6.84375,"x_max":434,"ha":449,"o":"m 434 724 q 426 658 434 703 q 419 590 419 614 l 387 577 l 47 577 q 17 631 17 592 q 20 661 17 642 q 23 690 23 681 q 9 733 23 717 q 81 770 27 770 q 319 770 175 770 q 428 763 383 770 q 434 724 434 746 m 431 439 q 424 373 431 418 q 417 305 417 329 l 384 292 l 44 292 q 15 346 15 307 q 17 376 15 357 q 20 405 20 396 q 6 448 20 432 q 78 485 24 485 q 316 485 172 485 q 425 478 380 485 q 431 439 431 461 "},"N":{"x_min":23,"x_max":846.859375,"ha":860,"o":"m 846 1025 q 840 968 846 1017 q 821 750 821 912 q 821 275 821 538 q 821 -251 821 249 l 789 -271 l 538 -271 l 518 -246 q 273 443 457 -19 q 273 409 273 427 q 286 157 273 303 q 304 -121 304 63 q 176 -149 259 -149 q 103 -149 153 -149 q 31 -149 54 -149 l 23 -126 q 23 620 23 232 q 23 957 23 788 q 102 981 48 981 q 129 981 112 981 q 156 981 146 981 q 217 989 176 981 q 279 998 259 998 q 312 992 297 998 q 364 864 342 946 q 401 731 398 739 q 451 585 425 658 q 511 443 481 502 q 513 618 513 521 q 513 830 513 689 q 513 1042 513 971 q 529 1067 513 1057 q 551 1072 536 1068 q 835 1077 562 1077 q 846 1025 846 1057 "},"2":{"x_min":38,"x_max":858,"ha":850,"o":"m 858 632 q 771 387 858 461 q 627 301 740 361 q 481 216 524 247 q 363 92 407 161 l 827 92 q 827 -8 827 -6 q 813 -92 827 -61 q 582 -143 726 -143 q 465 -136 533 -143 l 108 -99 q 76 -6 76 -65 q 82 68 76 14 q 86 143 89 115 q 194 272 114 211 q 332 371 240 307 q 468 446 378 394 q 559 539 531 484 q 570 561 569 555 q 576 644 576 588 q 426 804 576 804 q 363 792 390 804 q 343 674 343 749 q 343 605 343 651 q 343 537 343 559 q 194 521 293 521 q 38 511 86 521 l 38 673 q 38 680 38 676 q 114 965 38 870 q 146 998 134 991 q 170 1006 149 1000 q 341 1032 243 1032 q 483 1023 398 1032 l 584 1013 q 623 1009 597 1012 q 840 830 821 962 q 858 632 858 704 "},"j":{"x_min":12,"x_max":690,"ha":708,"o":"m 690 648 q 653 134 690 438 l 648 91 q 638 70 648 88 q 554 -9 609 17 q 419 -44 506 -34 q 321 -55 377 -50 q 276 -60 278 -60 q 83 -21 123 -60 q 12 236 12 49 q 12 364 12 259 q 13 364 12 364 l 17 365 l 39 365 q 139 365 58 365 q 255 343 217 365 l 255 334 q 252 277 255 315 q 250 223 250 240 q 280 126 250 158 q 314 121 296 121 q 409 180 385 121 q 425 305 425 218 q 425 411 425 341 q 425 514 425 481 q 425 923 425 641 q 480 944 434 944 q 552 948 539 944 q 570 948 560 948 q 595 948 578 948 q 620 948 612 948 q 672 923 663 948 q 676 889 672 921 q 690 648 690 778 "},"Z":{"x_min":22,"x_max":1240.046875,"ha":1241,"o":"m 1240 957 l 1207 738 q 901 440 1112 641 q 596 152 699 247 q 1074 152 754 152 q 1045 -103 1074 97 l 1029 -151 q 683 -151 977 -151 l 26 -151 l 22 -171 l 22 43 l 707 686 l 141 686 q 139 740 139 710 q 149 883 139 787 q 158 1022 158 973 q 231 1042 185 1042 q 269 1042 243 1042 q 307 1042 295 1042 q 341 1042 318 1042 q 374 1042 363 1042 q 488 1042 435 1042 l 1223 972 l 1240 957 "},"u":{"x_min":4,"x_max":810,"ha":828,"o":"m 810 358 q 801 -5 810 157 q 748 -88 767 -73 q 667 -130 717 -103 q 492 -165 594 -165 q 370 -165 450 -165 q 334 -155 357 -159 q 239 -137 311 -151 q 69 -73 119 -115 q 4 96 4 -19 q 9 187 4 126 q 14 279 14 248 q 14 298 14 284 q 13 318 13 311 q 31 422 31 315 l 31 641 q 92 951 31 834 q 178 981 124 981 q 230 974 207 981 q 268 940 268 962 q 268 600 268 811 q 268 261 268 336 l 268 254 q 283 198 268 225 q 324 165 298 172 q 382 160 345 160 q 452 200 442 160 q 456 316 456 215 q 456 487 456 373 q 456 658 456 601 q 480 944 456 822 q 635 977 552 977 q 789 940 724 977 q 810 859 810 909 q 810 737 810 821 q 810 358 810 547 "},"1":{"x_min":0,"x_max":456.5,"ha":478,"o":"m 456 977 q 432 534 432 820 q 432 -23 432 322 q 309 -40 386 -40 l 300 -40 l 160 -40 l 152 -6 l 152 741 l 165 749 q 90 704 107 704 q 23 765 50 704 q 0 862 0 815 q 2 885 0 874 q 153 981 80 952 q 326 1011 226 1011 q 456 977 406 1011 "},"k":{"x_min":34.5,"x_max":729,"ha":752,"o":"m 729 915 q 528 350 729 914 q 624 66 560 248 q 722 -215 694 -129 q 692 -243 722 -238 q 641 -250 649 -250 l 570 -250 q 508 -233 528 -250 q 404 37 475 -143 q 359 -95 384 1 q 306 -225 336 -183 l 79 -225 l 59 -200 q 59 262 59 47 q 34 966 59 643 l 45 973 l 316 973 l 330 944 q 330 731 330 873 q 330 518 330 589 q 330 455 330 483 q 508 926 369 547 q 589 966 523 966 q 635 963 604 966 q 681 960 666 960 q 712 941 696 951 q 729 915 729 930 "},"<":{"x_min":0,"x_max":384,"ha":380,"o":"m 384 906 q 372 764 384 818 q 280 701 314 764 q 280 439 280 577 q 280 244 280 339 q 286 173 280 219 q 305 102 293 127 q 359 48 323 64 l 359 -147 q 269 -147 270 -147 q 175 -130 213 -147 q 39 -45 85 -105 q 24 -24 26 -28 q 0 79 20 -10 q 37 795 0 429 q 45 875 37 823 q 56 901 46 882 q 185 1015 95 979 q 384 1054 235 1036 l 384 906 "},"t":{"x_min":6.5625,"x_max":1172,"ha":1187,"o":"m 1172 837 l 1148 825 l 748 825 l 733 809 q 733 397 733 790 q 754 -10 733 155 q 684 -20 723 -20 q 619 -16 662 -20 q 554 -12 576 -12 q 516 -15 533 -12 q 474 -9 509 -9 q 431 8 447 -9 q 431 126 431 64 q 431 437 431 223 q 431 748 431 638 l 394 772 l 18 772 l 6 788 q 12 936 12 829 q 22 1082 12 1029 q 85 1094 50 1094 q 149 1087 108 1094 q 211 1076 197 1077 q 260 1075 210 1076 l 380 1075 q 653 1075 470 1075 q 925 1075 835 1075 q 1143 1075 1057 1075 l 1172 1059 l 1172 837 "},"W":{"x_min":18,"x_max":1217.5625,"ha":1230,"o":"m 1217 1013 q 1204 955 1217 996 q 1191 890 1191 915 q 1174 793 1191 896 q 1068 -156 1121 446 q 873 -194 979 -194 q 838 -194 855 -194 q 679 430 760 148 l 679 433 q 668 450 679 439 q 636 305 653 401 q 606 160 624 233 q 593 44 602 144 q 568 -200 582 -46 q 491 -239 547 -233 q 400 -252 459 -242 q 307 -272 323 -272 q 251 -237 261 -272 q 243 -182 249 -219 l 223 -28 q 171 328 185 233 q 106 682 140 528 q 84 776 91 748 q 53 866 71 829 q 18 996 18 944 q 24 1044 18 1021 q 338 1101 96 1066 l 367 1037 q 405 754 368 1034 q 457 478 427 586 q 532 1008 532 739 q 642 1046 563 1046 q 722 1046 651 1046 q 773 971 759 1022 q 782 876 782 940 q 792 783 782 812 q 829 614 802 754 q 877 450 850 511 q 912 734 912 553 q 929 1021 912 946 l 950 1049 l 1206 1049 q 1217 1013 1217 1032 "},"v":{"x_min":0,"x_max":1253.578125,"ha":1263,"o":"m 1253 929 q 1167 662 1239 778 q 1154 641 1162 655 q 1137 591 1148 623 q 1076 456 1120 544 q 1015 322 1033 368 q 947 47 990 257 q 873 -188 916 -105 q 861 -211 862 -210 q 809 -262 860 -212 l 488 -262 q 427 -150 442 -230 q 393 -28 408 -52 q 221 460 363 136 q 99 735 160 597 q 0 1019 31 896 q 12 1074 2 1037 q 43 1111 21 1111 q 230 1095 111 1111 q 416 1078 364 1078 q 458 1000 446 1051 q 476 912 466 955 q 566 560 507 784 q 675 217 616 365 q 745 355 711 262 q 788 469 759 393 q 804 504 794 480 q 856 662 813 528 q 948 973 895 791 q 1014 1003 973 1003 q 1079 990 1038 1003 q 1143 973 1125 976 q 1205 965 1174 969 q 1253 929 1241 955 "},">":{"x_min":24,"x_max":537,"ha":559,"o":"m 537 221 q 506 -32 537 73 q 396 -202 473 -148 q 360 -223 373 -219 q 311 -231 343 -225 q 193 -257 253 -245 q 74 -273 124 -273 q 38 -273 56 -273 q 24 -190 24 -238 q 42 -64 24 -141 q 167 28 146 -35 q 174 64 169 30 q 195 336 195 173 q 195 608 195 472 q 204 662 204 621 q 204 715 204 697 q 199 743 204 719 q 124 843 177 814 q 87 853 106 853 q 46 859 74 853 q 44 893 44 876 q 57 995 44 927 q 70 1095 70 1062 l 80 1097 q 204 1090 167 1097 q 325 1058 275 1078 q 437 981 393 1031 q 456 959 453 965 q 468 922 460 954 q 520 597 520 794 l 520 343 q 537 221 537 214 "},"s":{"x_min":18.75,"x_max":921,"ha":914,"o":"m 921 60 q 862 -153 921 -80 q 823 -186 851 -165 q 553 -264 719 -264 q 210 -209 415 -264 q 47 -55 81 -175 q 18 169 18 45 q 121 176 64 176 q 355 153 222 176 q 370 87 365 139 q 401 28 375 45 q 485 5 439 5 q 570 39 536 5 q 505 188 570 125 q 367 278 465 225 q 269 335 305 312 q 229 367 254 348 q 176 395 211 375 q 69 521 103 442 q 55 553 59 545 q 55 606 55 555 q 45 739 45 704 q 162 1024 45 952 q 367 1079 228 1066 q 603 1098 543 1098 q 851 995 784 1098 q 907 650 907 909 q 901 555 907 599 q 738 555 820 555 q 579 577 644 555 l 579 673 q 584 718 579 688 q 568 836 584 796 q 513 873 552 873 q 428 843 469 873 q 351 770 371 832 q 346 713 346 753 q 390 588 346 624 q 467 543 393 586 q 664 425 608 461 q 844 284 770 356 q 872 255 855 274 q 921 60 921 188 "},"B":{"x_min":46,"x_max":691,"ha":718,"o":"m 691 782 q 661 596 691 629 q 608 561 654 589 q 563 521 573 540 q 652 429 634 487 q 667 274 667 379 q 647 85 667 188 q 641 52 646 72 q 631 36 639 47 q 536 -20 600 -5 q 421 -34 519 -24 q 383 -37 381 -38 l 58 -37 l 46 -23 q 46 306 46 125 q 46 1084 46 497 q 69 1107 48 1091 q 206 1100 127 1100 l 396 1102 l 395 1102 q 581 1076 532 1098 q 614 1049 593 1070 q 691 799 691 971 l 691 782 m 420 766 q 407 854 420 826 q 371 905 396 878 q 319 940 341 936 q 285 944 308 941 l 273 946 q 235 930 247 946 l 235 642 q 292 617 244 617 q 326 617 322 617 q 373 636 349 617 q 408 678 396 655 q 420 766 420 702 m 479 267 q 468 350 479 319 q 354 419 443 419 q 339 419 347 419 q 327 332 327 382 q 327 265 327 310 q 327 197 327 220 q 330 163 327 179 q 375 148 347 148 q 452 167 405 148 q 479 267 479 210 "},"?":{"x_min":11,"x_max":764,"ha":769,"o":"m 764 715 q 724 506 764 584 q 682 454 723 504 l 584 335 q 465 154 498 231 q 366 123 430 128 q 260 120 344 120 l 223 120 q 209 163 209 139 q 248 259 209 195 q 465 545 367 452 q 503 717 503 685 q 467 815 503 779 q 370 852 431 852 q 313 842 339 852 q 294 715 294 800 q 294 661 294 696 q 294 609 294 625 q 158 591 245 591 q 14 585 49 591 l 14 738 l 14 739 l 11 738 l 11 736 q 113 1029 11 946 q 257 1070 162 1070 q 403 1057 311 1070 q 549 1038 511 1038 q 677 993 618 1038 q 749 878 736 948 q 764 715 764 793 m 463 -166 q 354 -187 425 -187 q 287 -187 331 -187 q 219 -187 240 -187 l 206 -177 l 206 -43 q 215 52 206 15 l 448 52 l 463 36 l 463 -166 "},"H":{"x_min":26.109375,"x_max":713,"ha":751,"o":"m 713 -52 q 699 -68 713 -59 q 678 -78 685 -78 q 449 -59 506 -78 q 449 54 449 -7 q 449 318 449 144 q 375 339 419 339 q 323 334 356 339 q 272 330 290 330 q 244 333 257 330 q 229 259 229 303 q 229 212 229 246 q 243 -37 243 148 l 238 -50 q 189 -50 212 -50 q 26 -27 79 -50 q 37 391 37 164 q 37 812 37 575 q 119 830 69 830 q 205 818 160 830 q 215 701 215 792 q 223 618 215 644 q 364 607 302 607 q 435 611 402 607 q 451 733 451 631 q 452 771 452 773 q 439 854 439 825 q 431 938 439 884 l 452 952 q 574 952 521 952 q 683 958 644 952 l 704 929 q 704 558 704 752 q 704 15 704 326 q 713 -52 713 -55 "},"c":{"x_min":7,"x_max":829,"ha":839,"o":"m 829 745 q 829 603 829 696 l 802 583 l 792 583 q 727 578 769 583 q 664 573 684 573 q 584 594 615 573 l 584 601 q 587 645 582 616 q 592 688 592 674 q 490 762 592 762 q 361 745 429 762 q 298 655 309 732 q 289 532 289 587 q 289 494 289 517 q 289 453 289 462 q 289 291 289 416 q 317 61 289 114 q 437 9 346 9 q 526 20 475 9 q 584 148 570 60 q 584 291 584 219 q 658 297 621 297 q 790 276 729 297 q 774 34 790 195 q 698 -140 762 -75 q 668 -166 679 -159 q 526 -192 626 -192 q 470 -192 507 -192 q 415 -192 433 -192 q 390 -192 407 -192 q 367 -192 376 -192 l 294 -179 q 185 -165 254 -179 q 50 -84 98 -141 q 35 -65 36 -68 l 7 20 q 32 717 7 459 q 46 845 32 760 q 140 974 63 925 q 284 1023 190 1006 q 389 1040 322 1029 q 441 1049 439 1049 q 505 1049 464 1049 q 570 1049 551 1049 q 643 1049 594 1049 q 799 956 760 1049 q 829 745 829 888 "},"&":{"x_min":11,"x_max":932,"ha":940,"o":"m 932 385 q 884 285 932 347 q 836 187 836 223 q 887 94 841 165 q 924 -2 924 39 q 849 -52 886 -27 q 769 -87 802 -80 l 717 -13 q 584 -94 669 -74 q 426 -112 506 -112 q 400 -111 437 -111 q 342 -111 376 -111 q 145 -92 198 -111 q 39 2 65 -64 q 11 204 11 75 q 15 274 11 228 q 19 341 19 321 q 80 412 19 376 q 142 457 142 449 q 83 499 142 475 q 37 699 37 576 q 49 859 37 763 q 111 967 58 937 q 334 1007 181 1007 q 485 1007 366 1007 q 616 1007 528 1007 q 687 966 651 1002 q 737 894 722 930 q 766 704 766 828 q 761 565 766 714 q 761 561 761 564 q 761 541 761 558 q 697 488 761 525 q 634 443 634 451 q 692 400 634 424 l 713 371 q 762 432 732 378 q 819 481 789 481 q 874 444 836 481 q 930 396 917 403 q 932 385 932 390 m 496 696 q 466 796 496 758 q 451 811 461 800 q 361 856 410 856 q 242 801 287 856 q 219 696 219 735 q 228 643 219 664 q 265 578 242 611 q 378 535 294 535 q 475 578 445 535 q 485 593 483 589 q 496 696 496 630 m 605 183 q 513 312 578 260 q 367 367 443 367 q 324 345 350 367 q 291 307 298 323 q 281 222 281 280 q 309 104 281 139 q 429 39 362 39 q 541 82 488 39 q 605 183 593 125 "},"I":{"x_min":27.140625,"x_max":335.140625,"ha":371,"o":"m 335 977 q 312 569 312 817 l 312 234 q 312 44 312 170 l 295 33 l 57 33 q 27 91 27 51 q 40 147 27 109 q 53 206 53 185 q 53 306 53 220 q 53 809 53 737 q 53 973 53 896 q 112 998 61 984 q 153 997 125 997 q 200 997 168 997 q 247 997 231 997 q 335 977 303 997 "},"G":{"x_min":0,"x_max":718.53125,"ha":751,"o":"m 718 682 q 715 618 718 652 q 440 598 661 598 q 419 671 427 606 q 381 734 411 727 q 359 734 379 734 q 221 713 254 734 q 178 559 178 685 q 178 534 178 551 q 179 511 179 519 q 174 424 179 481 q 170 338 170 368 q 253 157 170 197 q 337 142 285 142 q 435 168 404 142 q 475 238 475 201 l 475 243 l 461 258 q 345 258 462 258 q 264 283 288 258 l 264 520 l 277 536 q 652 518 408 518 l 672 495 q 672 381 672 477 q 672 268 672 312 q 613 48 672 117 q 342 -51 518 -51 q 99 23 197 -51 q 14 160 36 71 q 0 323 0 218 q 0 372 0 340 q 0 421 0 404 q 16 794 0 704 q 66 915 27 860 q 157 989 110 978 q 284 1010 174 993 q 438 1027 399 1027 q 593 999 527 1027 q 613 989 612 990 q 666 935 639 964 q 678 908 669 932 q 718 682 718 817 "},"(":{"x_min":0,"x_max":384,"ha":380,"o":"m 384 906 q 372 764 384 818 q 280 701 314 764 q 280 439 280 577 q 280 244 280 339 q 286 173 280 219 q 305 102 293 127 q 359 48 323 64 l 359 -147 q 269 -147 270 -147 q 175 -130 213 -147 q 39 -45 85 -105 q 24 -24 26 -28 q 0 79 20 -10 q 37 795 0 429 q 45 875 37 823 q 56 901 46 882 q 185 1015 95 979 q 384 1054 235 1036 l 384 906 "},"`":{"x_min":14,"x_max":271,"ha":270,"o":"m 271 464 q 163 446 232 446 q 95 446 151 446 q 27 446 54 446 l 14 454 l 14 586 q 23 682 14 645 l 256 682 l 271 668 l 271 464 "},"U":{"x_min":4,"x_max":810,"ha":828,"o":"m 810 358 q 801 -5 810 157 q 748 -88 767 -73 q 667 -130 717 -103 q 492 -165 594 -165 q 370 -165 450 -165 q 334 -155 357 -159 q 239 -137 311 -151 q 69 -73 119 -115 q 4 96 4 -19 q 9 187 4 126 q 14 279 14 248 q 14 298 14 284 q 13 318 13 311 q 31 422 31 315 l 31 641 q 92 951 31 834 q 178 981 124 981 q 230 974 207 981 q 268 940 268 962 q 268 600 268 811 q 268 261 268 336 l 268 254 q 283 198 268 225 q 324 165 298 172 q 382 160 345 160 q 452 200 442 160 q 456 316 456 215 q 456 487 456 373 q 456 658 456 601 q 480 944 456 822 q 635 977 552 977 q 789 940 724 977 q 810 859 810 909 q 810 737 810 821 q 810 358 810 547 "},"F":{"x_min":34,"x_max":715.625,"ha":751,"o":"m 715 896 q 712 852 715 882 q 710 806 710 821 q 711 790 710 800 q 712 774 712 779 q 684 745 712 744 q 594 752 696 752 q 392 752 476 752 q 258 753 317 752 q 232 697 232 736 q 236 664 232 686 q 240 633 240 643 l 264 613 l 620 613 l 633 597 q 628 549 628 574 q 633 484 628 526 q 639 419 639 442 q 638 392 639 406 q 593 369 621 369 q 559 374 582 369 q 523 378 535 378 q 503 375 516 378 q 482 372 489 372 q 436 376 467 372 q 388 381 405 381 q 327 360 353 381 q 310 193 310 285 q 310 147 310 178 q 310 101 310 117 q 315 57 310 86 q 320 13 320 28 q 288 -57 320 -37 l 59 -57 l 34 -42 q 34 81 34 17 q 34 950 34 433 l 42 980 l 673 980 q 715 896 715 955 "},"r":{"x_min":9.71875,"x_max":860,"ha":871,"o":"m 860 -192 q 857 -208 860 -201 q 723 -240 802 -240 q 592 -224 670 -240 q 535 -49 552 -170 q 495 131 514 87 q 353 239 456 218 l 333 221 l 333 176 q 353 -184 333 7 l 342 -208 l 29 -208 l 22 -196 q 31 260 22 5 q 31 210 31 243 l 29 720 q 19 836 29 759 q 9 951 9 912 l 29 976 l 90 976 q 591 929 397 976 q 658 910 614 924 q 777 797 730 883 q 821 633 821 718 q 695 410 821 485 q 657 396 681 406 q 634 368 634 386 l 634 363 q 735 219 709 318 q 742 160 735 218 l 757 39 q 816 -121 772 -80 q 860 -192 860 -163 m 459 615 q 437 708 459 683 q 386 765 420 727 q 339 784 372 768 q 283 800 306 800 q 254 793 267 800 l 254 515 l 270 502 q 396 513 367 502 q 459 615 459 537 "},":":{"x_min":4,"x_max":261,"ha":275,"o":"m 261 593 q 153 575 222 575 q 85 575 141 575 q 17 575 44 575 l 4 583 l 4 715 q 13 811 4 774 l 246 811 l 261 797 l 261 593 m 261 22 q 153 4 222 4 q 85 4 141 4 q 17 4 44 4 l 4 12 l 4 144 q 13 240 4 203 l 246 240 l 261 226 l 261 22 "},"x":{"x_min":24,"x_max":970,"ha":970,"o":"m 970 -59 q 844 -121 922 -88 q 715 -177 733 -169 l 692 -173 l 470 190 q 380 21 425 105 q 308 -156 331 -77 q 260 -169 286 -169 q 178 -151 233 -169 q 93 -133 123 -133 q 81 -88 81 -113 q 94 -27 81 -62 q 213 235 140 87 q 308 438 247 301 q 24 931 24 883 q 70 983 24 963 q 217 1034 181 1034 q 260 1028 241 1034 q 349 897 279 1022 q 443 733 429 750 q 576 1000 486 822 q 831 927 684 977 l 831 886 q 609 478 677 626 q 787 212 677 369 q 970 -48 878 82 l 970 -59 "},"*":{"x_min":6.5625,"x_max":843.5,"ha":858,"o":"m 843 747 l 839 718 l 601 507 q 703 382 632 450 q 819 268 802 286 l 819 248 q 737 157 794 209 q 650 69 670 93 q 642 69 646 69 q 586 107 613 69 q 538 161 552 153 q 536 118 536 146 q 536 74 536 104 q 536 30 536 45 q 529 -29 536 -5 q 447 -43 492 -43 q 383 -39 425 -43 q 319 -35 341 -35 q 283 -37 299 -35 q 257 46 257 -4 q 263 116 257 73 q 272 184 272 166 q 229 146 258 182 q 182 110 201 110 q 158 119 168 110 q 131 146 148 129 q 67 207 114 164 q 6 303 12 259 l 233 507 q 133 628 205 559 q 20 737 92 662 q 90 841 37 787 l 186 926 q 242 882 209 919 q 294 827 278 837 l 294 1025 q 317 1041 294 1034 q 345 1050 332 1046 q 397 1046 361 1046 q 438 1046 410 1046 q 480 1046 466 1046 q 554 1029 528 1046 l 554 832 q 604 880 567 837 q 670 926 640 923 q 761 841 713 900 q 843 747 787 808 "},"V":{"x_min":0,"x_max":1253.578125,"ha":1263,"o":"m 1253 929 q 1167 662 1239 778 q 1154 641 1162 655 q 1137 591 1148 623 q 1076 456 1120 544 q 1015 322 1033 368 q 947 47 990 257 q 873 -188 916 -105 q 861 -211 862 -210 q 809 -262 860 -212 l 488 -262 q 427 -150 442 -230 q 393 -28 408 -52 q 221 460 363 136 q 99 735 160 597 q 0 1019 31 896 q 12 1074 2 1037 q 43 1111 21 1111 q 230 1095 111 1111 q 416 1078 364 1078 q 458 1000 446 1051 q 476 912 466 955 q 566 560 507 784 q 675 217 616 365 q 745 355 711 262 q 788 469 759 393 q 804 504 794 480 q 856 662 813 528 q 948 973 895 791 q 1014 1003 973 1003 q 1079 990 1038 1003 q 1143 973 1125 976 q 1205 965 1174 969 q 1253 929 1241 955 "}," ":{"x_min":0,"x_max":0,"ha":647},"h":{"x_min":26.109375,"x_max":713,"ha":751,"o":"m 713 -52 q 699 -68 713 -59 q 678 -78 685 -78 q 449 -59 506 -78 q 449 54 449 -7 q 449 318 449 144 q 375 339 419 339 q 323 334 356 339 q 272 330 290 330 q 244 333 257 330 q 229 259 229 303 q 229 212 229 246 q 243 -37 243 148 l 238 -50 q 189 -50 212 -50 q 26 -27 79 -50 q 37 391 37 164 q 37 812 37 575 q 119 830 69 830 q 205 818 160 830 q 215 701 215 792 q 223 618 215 644 q 364 607 302 607 q 435 611 402 607 q 451 733 451 631 q 452 771 452 773 q 439 854 439 825 q 431 938 439 884 l 452 952 q 574 952 521 952 q 683 958 644 952 l 704 929 q 704 558 704 752 q 704 15 704 326 q 713 -52 713 -55 "},"0":{"x_min":39,"x_max":808,"ha":816,"o":"m 808 392 q 790 47 808 226 q 779 -80 790 3 q 678 -213 762 -153 q 423 -273 595 -273 q 46 -56 70 -273 q 39 127 39 17 q 39 418 39 247 l 39 711 q 104 897 39 817 q 238 1031 153 991 q 368 1055 287 1055 q 502 1055 436 1055 l 515 1055 q 648 1027 588 1055 q 753 921 728 986 q 769 847 757 911 q 808 392 808 649 m 440 279 q 440 474 440 344 q 440 668 440 603 q 417 715 440 697 q 362 734 394 734 q 309 715 331 734 q 277 572 277 665 q 277 418 277 439 q 276 394 277 411 q 275 367 275 376 q 271 301 275 344 q 267 236 267 258 q 328 115 267 148 q 380 110 370 110 q 441 136 416 110 q 440 279 440 201 "},".":{"x_min":14,"x_max":271,"ha":270,"o":"m 271 -132 q 163 -151 232 -151 q 95 -151 151 -151 q 27 -151 54 -151 l 14 -142 l 14 -10 q 23 85 14 48 l 256 85 l 271 71 l 271 -132 "},"@":{"x_min":14,"x_max":832,"ha":839,"o":"m 832 636 q 808 634 822 634 q 762 637 793 634 q 716 641 731 641 q 670 621 687 641 l 670 318 q 607 311 615 311 q 557 330 573 311 q 557 405 557 350 q 557 480 557 455 q 542 616 557 560 l 392 616 l 392 683 q 401 730 392 714 l 832 730 l 832 636 m 488 220 q 445 206 469 206 q 391 214 428 206 q 333 220 353 223 q 310 303 319 239 q 280 383 302 362 l 163 383 q 141 303 156 374 q 99 248 130 248 q 62 259 84 248 q 14 306 14 259 q 19 330 14 316 q 178 795 140 628 q 205 794 189 794 q 239 794 216 794 q 272 794 261 794 q 329 753 324 794 q 405 487 345 636 q 454 356 441 399 q 488 220 480 281 m 261 479 l 232 581 l 194 479 l 261 479 "},"f":{"x_min":34,"x_max":715.625,"ha":751,"o":"m 715 896 q 712 852 715 882 q 710 806 710 821 q 711 790 710 800 q 712 774 712 779 q 684 745 712 744 q 594 752 696 752 q 392 752 476 752 q 258 753 317 752 q 232 697 232 736 q 236 664 232 686 q 240 633 240 643 l 264 613 l 620 613 l 633 597 q 628 549 628 574 q 633 484 628 526 q 639 419 639 442 q 638 392 639 406 q 593 369 621 369 q 559 374 582 369 q 523 378 535 378 q 503 375 516 378 q 482 372 489 372 q 436 376 467 372 q 388 381 405 381 q 327 360 353 381 q 310 193 310 285 q 310 147 310 178 q 310 101 310 117 q 315 57 310 86 q 320 13 320 28 q 288 -57 320 -37 l 59 -57 l 34 -42 q 34 81 34 17 q 34 950 34 433 l 42 980 l 673 980 q 715 896 715 955 "},";":{"x_min":-1.640625,"x_max":312.53125,"ha":317,"o":"m 303 250 q 195 232 264 232 q 127 232 183 232 q 59 232 86 232 l 46 240 l 46 372 q 55 468 46 431 l 288 468 l 303 454 l 303 250 m 312 44 q 247 -109 294 -26 q 162 -255 220 -159 q 122 -276 149 -276 q 85 -266 100 -276 q 41 -247 65 -252 q -1 -227 25 -241 q 60 -48 16 -152 q 133 125 82 3 q 161 149 142 149 q 237 105 181 149 q 312 44 275 75 "},"i":{"x_min":27.140625,"x_max":335.140625,"ha":371,"o":"m 335 977 q 312 569 312 817 l 312 234 q 312 44 312 170 l 295 33 l 57 33 q 27 91 27 51 q 40 147 27 109 q 53 206 53 185 q 53 306 53 220 q 53 809 53 737 q 53 973 53 896 q 112 998 61 984 q 153 997 125 997 q 200 997 168 997 q 247 997 231 997 q 335 977 303 997 "},"6":{"x_min":38,"x_max":924,"ha":958,"o":"m 924 727 q 913 590 924 651 l 893 575 l 884 575 q 813 569 860 575 q 743 563 766 563 q 659 584 692 563 q 662 627 659 598 q 665 671 665 656 q 627 753 665 732 q 616 755 617 755 q 573 755 600 755 q 530 755 541 755 q 468 755 508 755 q 400 735 432 755 q 352 682 361 714 q 336 516 336 625 q 340 446 336 478 l 349 446 q 479 454 394 446 q 604 462 563 462 q 843 377 770 462 q 871 335 867 349 q 889 131 889 278 q 513 -279 889 -279 q 181 -216 347 -279 q 77 -131 117 -192 q 38 0 38 -70 q 38 68 38 16 q 86 871 38 485 q 288 1051 103 995 q 581 1090 415 1090 q 771 1070 709 1090 q 887 978 848 1046 q 903 946 894 967 q 924 727 924 881 m 652 106 q 612 221 652 177 q 594 238 607 227 q 582 253 590 243 q 498 287 549 287 q 367 227 410 287 q 351 163 351 205 q 367 53 351 159 q 406 -12 374 12 q 484 -37 434 -32 q 556 -42 526 -42 q 620 2 586 -42 q 652 106 652 42 "},"A":{"x_min":4,"x_max":1109,"ha":1121,"o":"m 1109 -134 q 1109 -207 1109 -159 q 1066 -264 1109 -255 q 746 -231 962 -251 q 707 -152 717 -205 l 691 -63 q 682 -26 688 -51 q 662 65 672 19 q 635 153 652 118 l 349 153 l 340 143 l 265 -138 q 227 -165 258 -165 q 196 -158 216 -165 q 167 -149 175 -151 q 72 -137 119 -144 q 4 -80 20 -124 q 74 180 4 62 q 88 202 80 187 q 95 230 91 212 q 133 333 107 273 q 177 434 177 433 q 245 637 198 491 q 349 1061 319 876 q 394 1107 362 1080 l 682 1107 q 746 998 726 1068 q 766 873 746 995 q 922 373 804 637 q 1109 -134 971 262 m 586 371 q 509 626 532 541 q 413 371 442 458 l 586 371 "},"n":{"x_min":23,"x_max":846.859375,"ha":860,"o":"m 846 1025 q 840 968 846 1017 q 821 750 821 912 q 821 275 821 538 q 821 -251 821 249 l 789 -271 l 538 -271 l 518 -246 q 273 443 457 -19 q 273 409 273 427 q 286 157 273 303 q 304 -121 304 63 q 176 -149 259 -149 q 103 -149 153 -149 q 31 -149 54 -149 l 23 -126 q 23 620 23 232 q 23 957 23 788 q 102 981 48 981 q 129 981 112 981 q 156 981 146 981 q 217 989 176 981 q 279 998 259 998 q 312 992 297 998 q 364 864 342 946 q 401 731 398 739 q 451 585 425 658 q 511 443 481 502 q 513 618 513 521 q 513 830 513 689 q 513 1042 513 971 q 529 1067 513 1057 q 551 1072 536 1068 q 835 1077 562 1077 q 846 1025 846 1057 "},"O":{"x_min":-1,"x_max":727,"ha":741,"o":"m 727 233 q 681 -15 727 70 q 661 -47 668 -40 q 625 -70 655 -54 q 349 -136 513 -136 q 116 -77 185 -136 q 18 93 48 -19 q -1 298 -1 169 q -1 383 -1 326 q -1 467 -1 440 q -1 556 -1 496 q -1 645 -1 616 q 35 910 -1 812 q 49 938 45 933 q 73 959 53 944 q 271 1018 151 1018 q 484 987 371 1018 q 673 892 618 951 q 727 744 727 851 q 727 581 727 689 q 727 406 727 537 q 727 233 727 298 m 482 387 q 482 631 482 526 q 475 670 482 645 q 465 689 473 676 q 358 744 431 744 q 322 699 330 719 q 322 383 322 385 q 322 321 322 362 q 322 259 322 280 q 364 123 322 165 q 381 109 374 112 q 418 104 395 104 q 482 133 461 104 q 482 387 482 272 "},"3":{"x_min":64,"x_max":821,"ha":850,"o":"m 821 634 q 817 540 821 590 q 811 498 814 526 q 811 494 811 497 q 813 490 813 491 q 745 416 813 454 q 678 369 678 377 q 741 320 678 350 q 811 155 811 288 q 794 -1 811 98 q 756 -147 775 -107 q 709 -199 737 -187 q 653 -217 698 -203 q 369 -262 507 -262 q 255 -253 294 -262 q 171 -205 216 -245 q 110 -128 132 -168 q 71 117 71 -54 q 71 166 71 141 l 291 166 q 301 96 301 152 q 311 19 301 40 q 366 -30 325 -17 q 458 -44 407 -44 q 556 -25 516 -44 q 596 94 596 24 q 441 262 596 262 q 401 259 423 262 q 374 322 374 282 q 380 376 374 338 q 387 433 387 414 q 524 541 468 450 q 530 626 530 598 q 497 754 530 718 q 442 775 478 775 q 391 768 426 775 q 337 761 356 761 q 285 596 285 723 l 64 596 q 83 799 64 736 q 188 960 111 910 q 212 974 207 973 l 295 996 q 406 990 337 990 q 619 981 577 990 q 764 899 713 963 q 783 870 771 890 q 793 841 785 866 q 821 634 821 740 "},"]":{"x_min":24,"x_max":537,"ha":559,"o":"m 537 221 q 506 -32 537 73 q 396 -202 473 -148 q 360 -223 373 -219 q 311 -231 343 -225 q 193 -257 253 -245 q 74 -273 124 -273 q 38 -273 56 -273 q 24 -190 24 -238 q 42 -64 24 -141 q 167 28 146 -35 q 174 64 169 30 q 195 336 195 173 q 195 608 195 472 q 204 662 204 621 q 204 715 204 697 q 199 743 204 719 q 124 843 177 814 q 87 853 106 853 q 46 859 74 853 q 44 893 44 876 q 57 995 44 927 q 70 1095 70 1062 l 80 1097 q 204 1090 167 1097 q 325 1058 275 1078 q 437 981 393 1031 q 456 959 453 965 q 468 922 460 954 q 520 597 520 794 l 520 343 q 537 221 537 214 "},"m":{"x_min":-2.328125,"x_max":1290.578125,"ha":1340,"o":"m 1290 -254 l 1282 -268 l 1242 -268 q 1005 -249 1115 -268 q 989 -180 989 -223 q 970 -67 989 -141 q 970 151 970 41 q 938 368 970 282 q 877 152 903 277 q 839 -67 869 112 q 826 -141 836 -96 q 734 -190 813 -181 q 621 -190 678 -190 q 574 -198 577 -198 q 498 -148 510 -198 q 471 -31 490 -109 q 332 355 425 140 q 331 200 331 284 q 331 -3 331 132 q 331 -208 331 -139 q 311 -277 331 -269 q 260 -279 287 -279 q 171 -279 230 -279 q 82 -279 111 -279 q 7 -277 41 -279 q -2 -184 -2 -237 l -2 -167 q -2 -84 -2 -138 l -2 -63 q 0 -56 0 -60 q 14 -58 15 -58 q 14 28 14 -17 q 14 540 14 184 q 14 1051 14 870 l 43 1068 l 299 1068 q 344 988 326 1041 q 371 898 352 957 q 414 785 386 860 q 504 533 448 692 q 649 175 584 301 q 683 255 655 184 q 720 344 697 284 q 739 411 722 350 q 886 1023 828 719 q 935 1035 905 1035 q 995 1027 965 1035 q 1073 1012 1025 1019 q 1159 982 1126 1012 q 1290 -254 1159 366 "},"9":{"x_min":16,"x_max":898,"ha":902,"o":"m 898 716 q 850 -64 898 364 q 610 -246 776 -201 q 301 -271 512 -271 q 182 -269 197 -271 q 74 -205 125 -264 q 16 -92 16 -142 l 16 193 q 44 232 16 215 l 55 232 q 125 237 78 232 q 194 243 172 243 q 279 222 244 243 q 275 179 279 208 q 272 134 272 149 q 321 48 272 57 q 391 48 322 48 q 491 52 468 48 q 574 100 546 61 q 586 124 583 116 q 601 288 601 180 q 597 357 601 325 l 587 357 q 458 349 542 357 q 333 342 374 342 q 91 431 164 342 q 66 469 70 456 q 57 606 57 498 q 91 889 57 736 q 101 935 93 906 q 131 976 107 948 q 376 1073 217 1073 q 568 1052 449 1073 l 699 1029 q 756 1022 719 1029 q 859 937 816 1003 q 870 922 869 924 q 896 805 870 920 q 898 716 898 802 m 585 653 q 537 816 585 721 q 416 844 484 844 q 340 832 376 844 q 294 696 294 782 q 304 616 294 641 q 322 588 307 609 q 447 518 374 518 q 553 560 506 518 q 570 577 567 572 q 585 653 585 599 "},"l":{"x_min":13.75,"x_max":677.71875,"ha":697,"o":"m 677 80 l 662 62 l 638 62 q 31 105 505 62 l 26 120 q 26 581 26 386 q 13 1038 26 835 l 39 1058 l 286 1058 q 316 1019 316 1058 q 300 992 316 1003 q 283 678 300 702 q 261 366 283 500 q 266 339 266 356 q 264 318 266 332 q 262 297 262 304 q 277 260 262 272 q 378 259 322 259 q 497 259 417 259 q 616 259 577 259 q 677 259 651 259 l 677 80 "},"8":{"x_min":1,"x_max":824,"ha":823,"o":"m 824 683 q 813 533 824 576 q 740 467 808 508 q 672 410 672 425 q 745 354 672 386 q 799 178 799 332 q 783 -44 799 91 q 712 -163 774 -137 q 672 -174 707 -166 q 350 -211 530 -211 q 108 -170 168 -211 q 1 162 1 -98 q 8 285 1 223 q 93 360 23 315 q 157 412 157 401 q 75 463 157 429 q 7 705 7 490 q 21 858 7 786 q 87 987 43 955 q 182 1020 102 998 q 344 1043 263 1043 q 475 1033 397 1043 q 606 1015 541 1024 q 659 1010 624 1015 q 738 970 702 1003 q 792 895 774 937 q 824 683 824 816 m 529 675 q 497 785 529 746 q 480 803 492 790 q 466 819 475 808 q 380 853 435 853 q 267 809 312 853 q 253 794 255 798 q 226 676 226 746 q 240 610 226 643 q 276 549 243 606 q 394 502 303 502 q 504 545 466 502 q 518 567 515 560 q 529 675 529 603 m 596 122 q 549 258 596 214 q 527 273 545 261 q 397 317 459 317 q 344 296 373 317 q 305 251 315 276 q 295 160 295 226 q 326 30 295 71 q 459 -40 382 -40 q 531 -17 476 -40 q 571 25 557 -6 q 596 122 596 82 "},"p":{"x_min":20,"x_max":809,"ha":816,"o":"m 809 618 q 704 382 809 443 q 527 316 663 358 q 348 252 466 298 l 338 229 q 338 52 338 140 q 360 -121 338 -52 l 360 -127 q 363 -154 358 -137 q 367 -180 367 -171 q 356 -206 367 -195 q 273 -208 319 -208 q 159 -208 246 -208 q 43 -208 86 -208 l 20 -189 l 20 401 q 20 964 20 734 q 97 981 33 981 q 161 980 145 981 q 405 980 391 980 q 638 932 553 980 q 781 786 732 881 q 798 750 788 773 q 809 618 809 707 m 466 678 q 458 736 466 717 q 421 786 451 755 q 372 819 391 817 q 318 821 353 821 l 306 824 l 303 824 l 304 824 q 245 805 265 824 l 245 563 l 261 544 q 293 543 277 543 q 439 584 373 543 q 466 678 466 621 "},"4":{"x_min":49,"x_max":811.03125,"ha":827,"o":"m 811 942 l 674 -251 l 360 -251 l 345 -236 q 413 279 386 45 l 76 279 l 49 316 l 49 992 l 65 1008 q 176 994 121 1001 q 287 958 248 981 l 287 596 q 371 585 321 585 q 451 580 429 585 q 481 750 466 640 q 510 920 499 869 q 651 960 560 949 q 802 965 665 965 l 811 942 "},"R":{"x_min":9.71875,"x_max":860,"ha":871,"o":"m 860 -192 q 857 -208 860 -201 q 723 -240 802 -240 q 592 -224 670 -240 q 535 -49 552 -170 q 495 131 514 87 q 353 239 456 218 l 333 221 l 333 176 q 353 -184 333 7 l 342 -208 l 29 -208 l 22 -196 q 31 260 22 5 q 31 210 31 243 l 29 720 q 19 836 29 759 q 9 951 9 912 l 29 976 l 90 976 q 591 929 397 976 q 658 910 614 924 q 777 797 730 883 q 821 633 821 718 q 695 410 821 485 q 657 396 681 406 q 634 368 634 386 l 634 363 q 735 219 709 318 q 742 160 735 218 l 757 39 q 816 -121 772 -80 q 860 -192 860 -163 m 459 615 q 437 708 459 683 q 386 765 420 727 q 339 784 372 768 q 283 800 306 800 q 254 793 267 800 l 254 515 l 270 502 q 396 513 367 502 q 459 615 459 537 "},"o":{"x_min":-1,"x_max":727,"ha":741,"o":"m 727 233 q 681 -15 727 70 q 661 -47 668 -40 q 625 -70 655 -54 q 349 -136 513 -136 q 116 -77 185 -136 q 18 93 48 -19 q -1 298 -1 169 q -1 383 -1 326 q -1 467 -1 440 q -1 556 -1 496 q -1 645 -1 616 q 35 910 -1 812 q 49 938 45 933 q 73 959 53 944 q 271 1018 151 1018 q 484 987 371 1018 q 673 892 618 951 q 727 744 727 851 q 727 581 727 689 q 727 406 727 537 q 727 233 727 298 m 482 387 q 482 631 482 526 q 475 670 482 645 q 465 689 473 676 q 358 744 431 744 q 322 699 330 719 q 322 377 322 383 q 322 317 322 358 q 322 258 322 277 q 364 123 322 165 q 381 109 374 112 q 418 104 395 104 q 482 133 461 104 q 482 387 482 272 "},"5":{"x_min":31.375,"x_max":795,"ha":784,"o":"m 795 119 q 702 -101 795 -19 q 495 -205 630 -167 q 264 -242 374 -242 q 126 -210 167 -242 q 39 -64 57 -154 q 31 104 31 -21 q 111 121 59 121 q 210 66 205 121 q 220 -6 215 10 q 317 -70 242 -70 q 428 -27 386 -70 q 471 85 471 14 q 443 174 471 145 q 267 224 408 212 q 88 271 137 235 l 49 342 q 49 571 49 405 l 49 917 l 77 944 l 740 944 l 755 925 q 743 812 748 869 q 709 700 732 737 l 354 700 q 338 550 338 631 q 339 516 338 533 l 385 473 l 641 395 q 694 366 661 388 q 789 191 778 309 q 795 119 795 132 "}}}
